{"title":"The Other Guys R5 LINE H264 Feel-Free","uid":5902514,"size":854097796,"categoryP":"video","categoryS":"movies","magnet":"?xt=urn:btih:ef55437d550cddabfa2d87243f8348e2e8a2dd6f&amp;dn=The+Other+Guys+R5+LINE+H264+Feel-Free&amp;tr=udp%3A%2F%2Ftracker.openbittorrent.com%3A80&amp;tr=udp%3A%2F%2Fopen.demonii.com%3A1337&amp;tr=udp%3A%2F%2Ftracker.coppersurfer.tk%3A6969&amp;tr=udp%3A%2F%2Fexodus.desync.com%3A6969","seeders":0,"leechers":1,"uploader":".BONE.","files":8,"time":1287729375,"description":"Genre:Action | Comedy\nLanguage:English\nIMDb:http://www.imdb.com/title/tt1386588/\nSource:DVD5 RUS/LAP.AUDIO.Thx\n\nGeneral\nComplete name :The Other Guys R5 LINE H264 Feel-Free\nFormat : MPEG-4\nFormat profile : Base Media\nCodec ID : isom\nFile size : 814 MiB\nDuration : 1h 42mn\nOverall bit rate : 1 106 Kbps\nVideo #2\nCodec ID : avc1\nCodec ID/Info : Advanced Video Coding\nDuration : 1h 42mn\nBit rate mode : Variable\nBit rate : 938 Kbps\nWidth : 720 pixels\nHeight : 304 pixels\nDisplay aspect ratio : 2.35:1\nFrame rate mode : Constant\nFrame rate : 23.976 fps\nOriginal frame rate : 23.000 fps\nResolution : 24 bits\nColorimetry : 4:2:0\nScan type : Progressive\nBits/(Pixel*Frame) : 0.179\nStream size : 691 MiB (85%)\nAudio #1\nID : 1\nFormat : AAC\nFormat/Info : Advanced Audio Codec\nFormat version : Version 4\nFormat profile : LC\nFormat settings, SBR : No\nCodec ID : 40\nDuration : 1h 42mn\nBit rate mode : Constant\nBit rate : 160 Kbps\nChannel(s) : 2 channels\nChannel positions : L R\nSampling rate : 48.0 KHz\nResolution : 16 bits\nStream size : 118 MiB (14%)\n\nPlot:\nTwo mismatched New York City detectives seize an opportunity to step up like the city's top cops whom they idolize -- only things don't quite go as planned","torrent":{"xt":"urn:btih:ef55437d550cddabfa2d87243f8348e2e8a2dd6f","amp;dn":"The+Other+Guys+R5+LINE+H264+Feel-Free","amp;tr":["udp%3A%2F%2Ftracker.openbittorrent.com%3A80","udp%3A%2F%2Fopen.demonii.com%3A1337","udp%3A%2F%2Ftracker.coppersurfer.tk%3A6969","udp%3A%2F%2Fexodus.desync.com%3A6969"],"infoHash":"ef55437d550cddabfa2d87243f8348e2e8a2dd6f","infoHashBuffer":{"type":"Buffer","data":[239,85,67,125,85,12,221,171,250,45,135,36,63,131,72,226,232,162,221,111]},"announce":[],"urlList":[]}}